<?xml version="1.0" encoding="utf-8"?>
<!-- Generator: Adobe Illustrator 19.2.1, SVG Export Plug-In . SVG Version: 6.00 Build 0)  -->
<svg version="1.1" id="Layer_1" xmlns="http://www.w3.org/2000/svg" xmlns:xlink="http://www.w3.org/1999/xlink" x="0px" y="0px"
	 width="300px" height="120px" viewBox="0 0 300 120" enable-background="new 0 0 300 120" xml:space="preserve">
<g>
	<g>
		<path fill="#ffffff" d="M74.41698,49.51567c-2.30795-1.92996-5.07393-3.47155-8.29646-4.62479c-3.22549-1.15323-6.84972-1.96553-10.87418-2.43691
			c-4.02445-0.46989-8.32017-0.70557-12.88566-0.70557H0.27959v36.5032H4.0224V44.43137h38.62141
			c1.64684,0,3.49527,0.04743,5.54233,0.14082c2.04706,0.09487,4.15341,0.29498,6.31906,0.60033
			c2.16416,0.30684,4.32981,0.73078,6.49545,1.27182c2.16565,0.54104,4.18899,1.27034,6.073,2.18788
			c1.88104,0.91755,3.58865,2.04854,5.11839,3.39003c1.52973,1.34148,2.74226,2.95423,3.63609,4.83527
			c0,0.51881-0.14082,0.89531-0.42393,1.12952c-0.28164,0.23717-0.68186,0.47137-1.19919,0.70706H7.76374v2.68297h67.49964
			c0.80045-0.09338,1.64684-0.56476,2.54215-1.41264c0.89383-0.84639,1.4823-1.88253,1.76543-3.10691
			C78.44144,53.89291,76.72196,51.44563,74.41698,49.51567z"/>
		<polygon fill="#ffffff" points="42.43184,65.11839 71.9445,78.2516 79.42865,78.2516 49.91599,65.11839 		"/>
		<path fill="#ffffff" d="M177.50079,49.40894c-2.30795-1.95219-5.07393-3.49527-8.29645-4.62479
			c-3.22549-1.12951-6.83788-1.91662-10.83861-2.36427s-8.28459-0.67148-12.85008-0.67148H103.3634v36.5032h3.74282V44.43137
			h38.69255c1.64685,0,3.48193,0.04743,5.50676,0.14082c2.02335,0.09487,4.1297,0.28312,6.31906,0.56475
			c2.18936,0.28312,4.36539,0.70706,6.53104,1.27182c2.16415,0.56476,4.21269,1.30591,6.14265,2.22346
			s3.64795,2.04854,5.15398,3.39003c1.50601,1.34148,2.68297,2.95423,3.53084,4.83527v3.81396
			c-0.56476,2.25903-1.55345,4.20085-2.96608,5.82397c-1.41116,1.6246-3.08319,2.98981-5.01315,4.0956
			s-4.03632,1.98925-6.31906,2.64739c-2.28275,0.65962-4.5892,1.16509-6.91939,1.51788
			c-2.33018,0.35279-4.60107,0.57662-6.81267,0.67149c-2.21307,0.09487-4.19048,0.14082-5.93069,0.14082h-34.1745v2.68297h33.89137
			c4.84714,0,9.3904-0.24755,13.62682-0.74116c4.23642-0.49509,8.00148-1.38744,11.29663-2.68297
			c3.29517-1.29405,6.073-3.08319,8.33203-5.36594s3.8362-5.21326,4.73003-8.79006v-3.81396
			C181.54749,53.84696,179.80577,51.36262,177.50079,49.40894z"/>
	</g>
	<g>
		<g>
			<g>
				<linearGradient id="SVGID_1_" gradientUnits="userSpaceOnUse" x1="271.14462" y1="49.90229" x2="271.14462" y2="29.41354">
					<stop  offset="0" style="stop-color:#AAFFC8"/>
					<stop  offset="1" style="stop-color:#47FF89"/>
				</linearGradient>
				<path fill="url(#SVGID_1_)" d="M299.7204,21.63796c-50.89467,8.89409-57.15155,44.27585-57.15155,44.27585l18.17786,32.44824
					C242.06769,49.21628,299.7204,21.63796,299.7204,21.63796z"/>
				<linearGradient id="SVGID_2_" gradientUnits="userSpaceOnUse" x1="210.54785" y1="49.90229" x2="210.54785" y2="29.41354">
					<stop  offset="0" style="stop-color:#AAFFC8"/>
					<stop  offset="1" style="stop-color:#47FF89"/>
				</linearGradient>
				<path fill="url(#SVGID_2_)" d="M181.97206,21.63796c0,0,57.65273,27.57832,38.97372,76.72409l18.17787-32.44824
					C239.12366,65.9138,232.86678,30.53204,181.97206,21.63796z"/>
			</g>
		</g>
		<g>
			<g>
				
					<linearGradient id="SVGID_3_" gradientUnits="userSpaceOnUse" x1="271.14462" y1="336.84302" x2="271.14462" y2="251.50041" gradientTransform="matrix(1 0 0 -1 0 343.7854)">
					<stop  offset="0" style="stop-color:#AAFFC8"/>
					<stop  offset="1" style="stop-color:#47FF89"/>
				</linearGradient>
				<path fill="url(#SVGID_3_)" d="M299.7204,98.36205c-50.89467-8.89409-57.15155-44.27584-57.15155-44.27584l18.17786-32.44824
					C242.06769,70.78372,299.7204,98.36205,299.7204,98.36205z"/>
				
					<linearGradient id="SVGID_4_" gradientUnits="userSpaceOnUse" x1="210.54785" y1="336.84302" x2="210.54785" y2="251.50041" gradientTransform="matrix(1 0 0 -1 0 343.7854)">
					<stop  offset="0" style="stop-color:#AAFFC8"/>
					<stop  offset="1" style="stop-color:#47FF89"/>
				</linearGradient>
				<path fill="url(#SVGID_4_)" d="M181.97206,98.36205c0,0,57.65273-27.57832,38.97372-76.72409l18.17787,32.44824
					C239.12366,54.0862,232.86678,89.46796,181.97206,98.36205z"/>
			</g>
		</g>
	</g>
</g>
</svg>
