<?xml version="1.0" encoding="utf-8"?>
<!-- Generator: Adobe Illustrator 24.1.0, SVG Export Plug-In . SVG Version: 6.00 Build 0)  -->
<svg version="1.1" id="Layer_1" xmlns="http://www.w3.org/2000/svg" xmlns:xlink="http://www.w3.org/1999/xlink" x="0px" y="0px"
	 viewBox="0 0 700 700" style="enable-background:new 0 0 700 700;" xml:space="preserve">
<path d="M422,368.8L631.2,568c-52.5-43.2-127.9-82-201.2-113.6l-21.9-31c-5.3-2.3-10.6-4.6-15.9-6.8l0.1,0.2
	c-4.9-2.1-9.7-4.1-14.5-6.2c-9.4-3.8-18.6-7.5-27.7-11.1c-73.5,28.5-159.3,67.9-214.2,113.1l69.5-66.2
	c-51,25.1-99.4,53.4-136.4,83.8L278,331.2L68.8,132c52.9,43.5,129,82.6,202.9,114.3l22,31c5.3,2.3,10.6,4.6,15.8,6.8l-0.1-0.1
	c4.5,1.9,8.9,3.8,13.4,5.7c9.2,3.8,18.3,7.4,27.3,10.9c73.5-28.5,159.3-67.9,214.2-113.1l-69.5,66.2c51-25.1,99.4-53.4,136.4-83.8
	L422,368.8z"/>
</svg>
