<?xml version="1.0" standalone="no"?>
<!DOCTYPE svg PUBLIC "-//W3C//DTD SVG 20010904//EN"
 "http://www.w3.org/TR/2001/REC-SVG-20010904/DTD/svg10.dtd">
<svg version="1.0" xmlns="http://www.w3.org/2000/svg"
 width="700.000000pt" height="700.000000pt" viewBox="0 0 700.000000 700.000000"
 preserveAspectRatio="xMidYMid meet">
<metadata>
Created by potrace 1.11, written by Peter Selinger 2001-2013
</metadata>
<g transform="translate(0.000000,700.000000) scale(0.100000,-0.100000)"
fill="#000000" stroke="none">
<path d="M860 5496 c0 -2 8 -10 18 -17 15 -13 16 -12 3 4 -13 16 -21 21 -21
13z"/>
<path d="M900 5468 c0 -3 69 -66 152 -139 84 -74 169 -148 188 -165 19 -17
116 -102 215 -189 166 -145 302 -266 329 -290 6 -5 29 -25 51 -44 22 -19 72
-62 110 -96 39 -34 169 -149 290 -255 121 -106 254 -223 295 -260 41 -37 98
-87 125 -110 28 -24 51 -46 53 -51 3 -7 -240 -88 -567 -188 -90 -28 -166 -52
-167 -54 -2 -2 47 -11 109 -20 61 -9 121 -18 132 -20 11 -3 43 -8 70 -11 28
-4 66 -10 85 -13 l35 -7 -30 -7 c-16 -5 -59 -15 -95 -24 -35 -9 -68 -19 -74
-22 -5 -4 38 -18 95 -32 l104 -25 -65 -12 c-36 -7 -83 -15 -105 -18 -91 -12
-124 -17 -195 -30 l-75 -13 60 -17 c293 -86 685 -215 685 -226 0 -5 -6 -13
-14 -17 -8 -4 -29 -21 -48 -38 -18 -16 -67 -59 -108 -95 -41 -36 -79 -70 -85
-76 -5 -6 -41 -37 -80 -70 -38 -32 -79 -68 -90 -79 -12 -11 -45 -40 -74 -65
-29 -25 -63 -54 -75 -65 -30 -27 -149 -131 -216 -190 -30 -26 -86 -76 -125
-110 -38 -34 -110 -98 -160 -141 -49 -43 -95 -83 -101 -89 -6 -5 -134 -118
-285 -250 -350 -306 -379 -334 -259 -247 216 157 466 313 765 477 120 66 548
280 655 328 19 8 71 32 115 52 82 38 126 57 135 60 3 1 23 9 45 19 22 10 83
36 135 58 52 22 113 48 135 58 22 9 112 45 200 80 88 34 169 66 180 71 11 5
49 19 85 32 l65 24 200 -79 c718 -284 1292 -554 1765 -830 179 -104 435 -271
551 -358 45 -34 77 -55 73 -48 -5 7 -19 22 -33 33 -14 11 -84 71 -156 134 -71
63 -159 139 -194 170 -35 31 -69 61 -75 66 -6 6 -50 44 -96 85 -47 41 -90 79
-96 85 -6 5 -42 37 -80 70 -37 33 -91 80 -119 105 -52 46 -152 134 -193 168
-12 11 -53 47 -90 80 -37 33 -166 146 -287 252 -121 106 -222 196 -225 199 -3
3 -36 33 -75 66 -38 33 -75 65 -82 71 -8 8 51 31 225 87 201 64 428 134 495
154 27 7 19 10 -63 22 -135 20 -145 21 -175 27 -16 3 -52 8 -79 11 -105 12
-106 18 -5 42 52 13 97 26 101 30 4 3 -38 17 -94 31 l-102 25 64 12 c89 16
118 20 253 39 64 10 115 19 113 21 -2 2 -104 35 -227 72 -347 107 -510 162
-507 170 2 5 100 93 218 196 118 103 222 195 231 204 9 9 43 39 75 66 60 51
138 119 210 184 43 39 50 44 229 201 66 58 134 117 150 132 17 14 40 35 53 46
12 11 53 47 90 80 37 32 110 97 162 142 115 101 218 191 279 245 26 23 63 55
84 73 62 53 33 36 -66 -37 -159 -118 -430 -290 -647 -411 -47 -26 -105 -59
-130 -73 -289 -162 -920 -453 -1355 -626 -71 -29 -139 -56 -150 -60 -11 -5
-58 -23 -105 -41 -47 -17 -92 -35 -100 -39 -14 -8 -140 34 -227 74 -17 8 -34
15 -39 15 -13 0 -361 143 -500 206 -27 13 -73 32 -100 43 -28 10 -84 35 -125
54 -41 20 -101 48 -134 62 -244 110 -695 345 -925 483 -161 96 -414 262 -418
273 -2 5 -10 9 -18 9 -8 0 -14 3 -14 8 0 4 -17 18 -38 31 -20 14 -47 34 -59
45 -13 11 -23 17 -23 14z"/>
</g>
</svg>
