<?xml version="1.0" encoding="utf-8"?>
<!-- Generator: Adobe Illustrator 24.1.0, SVG Export Plug-In . SVG Version: 6.00 Build 0)  -->
<svg version="1.1" id="Layer_1" xmlns="http://www.w3.org/2000/svg" xmlns:xlink="http://www.w3.org/1999/xlink" x="0px" y="0px"
	 viewBox="0 0 512 512" enable-background="new 0 0 512 512" xml:space="preserve">
<rect fill="#111111" width="512" height="512"/>
<g>
	<path fill="#0096E4" d="M312.07086,270.67218L474.9458,115.55964c-52.39648,43.14697-134.16373,80.70489-204.27359,107.88914
		c-15.03593-5.83003-30.60909-12.14035-46.31273-18.87746l93.89238,132.74432
		c57.12152,24.57944,115.83682,54.82468,156.69394,88.46924L312.07086,270.67218z"/>
	<path fill="#FF9B00" d="M37.0542,86.2151l162.87485,155.11255L37.0542,396.44037
		c52.39639-43.14697,134.16391-80.70508,204.2735-107.8894c15.44043,5.98685,31.44659,12.47803,47.57962,19.42014
		l-93.89236-132.74431C137.49571,150.55017,78.21346,120.10863,37.0542,86.2151z"/>
	<path fill="#FFFFFF" d="M289.80469,255.99994L422.8027,129.34039c-42.7851,35.23235-109.55347,65.90082-166.80273,88.09856
		c-57.24907-22.19774-124.01762-52.86621-166.80273-88.09856l132.99803,126.65955L89.19724,382.65967
		c42.78511-35.23233,109.55367-65.901,166.80273-88.09875c57.24927,22.19775,124.01764,52.86642,166.80273,88.09875
		L289.80469,255.99994z"/>
</g>
<g>
</g>
<g>
</g>
<g>
</g>
<g>
</g>
<g>
</g>
<g>
</g>
<g>
</g>
<g>
</g>
<g>
</g>
<g>
</g>
<g>
</g>
<g>
</g>
<g>
</g>
<g>
</g>
<g>
</g>
</svg>
