<?xml version="1.0" encoding="utf-8"?>
<!-- Generator: Adobe Illustrator 24.1.0, SVG Export Plug-In . SVG Version: 6.00 Build 0)  -->
<svg version="1.1" id="Layer_1" xmlns="http://www.w3.org/2000/svg" xmlns:xlink="http://www.w3.org/1999/xlink" x="0px" y="0px"
	 viewBox="0 0 1460.45361 768" enable-background="new 0 0 1460.45361 768" xml:space="preserve">
<rect fill="#111111" width="1460.45361" height="768"/>
<text transform="matrix(1 0 0 1 130.63315 45.00922)"><tspan x="0" y="0" fill="#FFFFFF" font-family="'MyriadPro-Regular'" font-size="36px">RDX 2020</tspan><tspan x="0" y="43.2002" fill="#FFFFFF" font-family="'MyriadPro-Regular'" font-size="36px">All written in JSX with an internal Babel compile setup for published code.</tspan><tspan x="0" y="86.3999" fill="#FFFFFF" font-family="'MyriadPro-Regular'" font-size="36px">Might need a Babel harness for running/testing CLIs.</tspan></text>
<g>
	<g>
		<path fill="#0096E4" d="M1419.55054,721.09277c0,0-29.23926-24.13959-39.10278-43.7597l14.27612,30.84253l10.58118,9.10004
			L1419.55054,721.09277z"/>
		<path fill="#FF9B00" d="M1421.76453,752.05743l-14.27612-30.84247l-10.58105-9.1001l-14.21509-3.84766
			C1382.69226,708.26721,1411.88574,732.42206,1421.76453,752.05743z"/>
	</g>
	<g>
		<path fill="#FFFFFF" d="M1404.87744,717.91693l10.1842,2.73309c0,0-20.88745-17.25348-27.92627-31.28528l10.21472,22.03253
			l-10.18408-2.73309c0,0,20.88733,17.25348,27.92615,31.28528L1404.87744,717.91693z"/>
	</g>
</g>
<g>
	<rect x="130.63327" y="149.26569" fill="#222222" width="293.46164" height="603.46863"/>
	<g>
		<rect x="151.96802" y="222.41341" fill="#333333" width="119.30043" height="119.30043"/>
	</g>
	<text transform="matrix(1 0 0 1 161.54688 242.44189)" fill="#FFFFFF" font-family="'MyriadPro-Regular'" font-size="13.51491px">App</text>
	<g>
		<rect x="151.96802" y="605.65515" fill="#333333" width="119.30043" height="119.30043"/>
	</g>
	<text transform="matrix(1 0 0 1 161.54688 625.68359)" fill="#FFFFFF" font-family="'MyriadPro-Regular'" font-size="13.51491px">Static</text>
	<text transform="matrix(1 0 0 1 145.43701 181.9209)" fill="#FFFFFF" font-family="'MyriadPro-Regular'" font-size="30.40855px">Assets</text>
	<rect x="432.54175" y="149.26569" fill="#222222" width="293.46164" height="603.46863"/>
	<text transform="matrix(1 0 0 1 447.34521 181.9209)"><tspan x="0" y="0" fill="#FFFFFF" font-family="'MyriadPro-Regular'" font-size="30.40855px">Folders w/ Utils &amp;</tspan><tspan x="0" y="28.04346" fill="#FFFFFF" font-family="'MyriadPro-Regular'" font-size="30.40855px">Config</tspan></text>
	<rect x="734.4502" y="149.26569" fill="#222222" width="293.46164" height="603.46863"/>
	<text transform="matrix(1 0 0 1 749.25391 181.9209)" fill="#FFFFFF" font-family="'MyriadPro-Regular'" font-size="30.40855px">Command Services</text>
	<rect x="1036.35864" y="149.26569" fill="#222222" width="293.46164" height="603.46863"/>
	<text transform="matrix(1 0 0 1 1051.16211 181.9209)" fill="#FFFFFF" font-family="'MyriadPro-Regular'" font-size="30.40855px">CLIs</text>
	<g>
		<rect x="1061.6991" y="222.41341" fill="#333333" width="119.30043" height="119.30043"/>
	</g>
	<text transform="matrix(1 0 0 1 1071.27734 242.44189)" fill="#FFFFFF" font-family="'MyriadPro-Regular'" font-size="13.51491px">App</text>
	<g>
		<rect x="1061.6991" y="350.16064" fill="#333333" width="119.30043" height="119.30043"/>
	</g>
	<text transform="matrix(1 0 0 1 1071.27734 370.18945)" fill="#FFFFFF" font-family="'MyriadPro-Regular'" font-size="13.51491px">Compile</text>
	<g>
		<rect x="1061.6991" y="477.9079" fill="#333333" width="119.30043" height="119.30043"/>
	</g>
	<text transform="matrix(1 0 0 1 1071.27734 497.93652)" fill="#FFFFFF" font-family="'MyriadPro-Regular'" font-size="13.51491px">Serve</text>
	<g>
		<rect x="1061.6991" y="605.65515" fill="#333333" width="119.30043" height="119.30043"/>
	</g>
	<text transform="matrix(1 0 0 1 1071.27734 625.68359)" fill="#FFFFFF" font-family="'MyriadPro-Regular'" font-size="13.51491px">Static</text>
	<g>
		<rect x="761.88062" y="222.41341" fill="#333333" width="119.30043" height="119.30043"/>
	</g>
	<text transform="matrix(1 0 0 1 771.45898 242.44189)" fill="#FFFFFF" font-family="'MyriadPro-Regular'" font-size="13.51491px">App</text>
	<g>
		<rect x="761.88062" y="350.16064" fill="#FF9B00" width="119.30043" height="119.30043"/>
	</g>
	<text transform="matrix(1 0 0 1 771.45898 370.18945)" fill="#FFFFFF" font-family="'MyriadPro-Regular'" font-size="13.51491px">Compile</text>
	<g>
		<rect x="761.88062" y="477.9079" fill="#0096E4" width="119.30043" height="119.30043"/>
	</g>
	<text transform="matrix(1 0 0 1 771.45898 497.93652)" fill="#FFFFFF" font-family="'MyriadPro-Regular'" font-size="13.51491px">Serve</text>
	<g>
		<rect x="761.88062" y="605.65515" fill="#333333" width="119.30043" height="119.30043"/>
	</g>
	<text transform="matrix(1 0 0 1 771.45898 625.68359)" fill="#FFFFFF" font-family="'MyriadPro-Regular'" font-size="13.51491px">Static</text>
	<g>
		<rect x="447.34549" y="222.41341" fill="#333333" width="119.30043" height="119.30043"/>
	</g>
	<text transform="matrix(1 0 0 1 456.92432 242.44189)" fill="#FFFFFF" font-family="'MyriadPro-Regular'" font-size="13.51491px">App</text>
	<g>
		<rect x="447.34549" y="350.16064" fill="#333333" width="119.30043" height="119.30043"/>
	</g>
	<text transform="matrix(1 0 0 1 456.92432 370.18945)" fill="#FFFFFF" font-family="'MyriadPro-Regular'" font-size="13.51491px">Compile</text>
	<g>
		<rect x="447.34549" y="477.9079" fill="#333333" width="119.30043" height="119.30043"/>
	</g>
	<text transform="matrix(1 0 0 1 456.92432 497.93652)" fill="#FFFFFF" font-family="'MyriadPro-Regular'" font-size="13.51491px">Serve</text>
	<g>
		<rect x="447.34549" y="605.65515" fill="#333333" width="119.30043" height="119.30043"/>
	</g>
	<text transform="matrix(1 0 0 1 456.92432 625.68359)" fill="#FFFFFF" font-family="'MyriadPro-Regular'" font-size="13.51491px">Static</text>
</g>
</svg>
